<svg xmlns="http://www.w3.org/2000/svg" width="777" height="480">
    <g>
        <polyline fill="#ffffff" stroke="#ffffff" stroke-width="30" stroke-linejoin="round" stroke-dashoffset=""
                  fill-rule="nonzero" marker-start="" marker-mid="" marker-end="" id="svg_1"
                  points="260.25260823638274,247.99999397679412 260.25260823638274,246.42104668762576 260.77892399943886,244.8420993984574 261.305239762495,242.21052058317687 261.8315555255511,240.1052575309524 262.88418705166333,238.52631024178405 263.9368185777755,235.3684156634474 264.98945010388775,233.26315261122292 266.04208163,231.68420532205457 266.5683973930561,230.63157379594233 267.62102891916834,229.05262650677398 267.62102891916834,228.52631074371786 268.14734468222446,226.94736345454953 268.6736604452806,225.89473192843732 269.1999762083367,224.8421004023251 269.7262919713928,224.31578463926897 270.25260773444893,223.78946887621285 270.77892349750505,223.26315311315673 270.77892349750505,222.73683735010061 271.3052392605611,222.73683735010061 271.3052392605611,222.73683735010061 272.35787078667335,222.21052158704452 272.35787078667335,221.6842058239884 272.88418654972946,221.1578900609323 273.4105023127856,220.63157429787617 273.9368180758417,220.63157429787617 273.9368180758417,220.63157429787617 274.98944960195394,220.63157429787617 274.98944960195394,220.63157429787617 275.51576536501005,220.63157429787617 276.0420811280662,220.63157429787617 276.5683968911223,220.63157429787617 277.0947126541784,220.63157429787617 277.6210284172345,220.63157429787617 277.6210284172345,220.63157429787617 277.6210284172345,220.63157429787617 277.6210284172345,220.63157429787617 278.14734418029064,221.1578900609323 278.67365994334676,221.6842058239884 279.1999757064029,222.21052158704452 279.1999757064029,222.73683735010061 279.1999757064029,222.73683735010061 279.72629146945894,223.78946887621285 280.25260723251506,224.31578463926897 280.25260723251506,224.8421004023251 280.7789229955712,225.3684161653812 281.3052387586273,225.89473192843732 281.3052387586273,226.4210476914934 281.83155452168336,226.94736345454953 281.83155452168336,226.94736345454953 281.83155452168336,226.94736345454953 281.83155452168336,226.94736345454953 281.83155452168336,227.47367921760568 282.35787028473953,227.9999949806618 282.35787028473953,227.9999949806618 282.35787028473953,228.52631074371786 282.35787028473953,229.05262650677398 282.35787028473953,229.05262650677398 282.35787028473953,230.1052580328862 282.88418604779565,230.63157379594233 282.88418604779565,230.63157379594233 282.88418604779565,231.68420532205457 282.88418604779565,232.7368368481668 282.88418604779565,233.26315261122292 282.88418604779565,234.31578413733516 282.88418604779565,235.3684156634474 282.88418604779565,236.9473629526157 282.88418604779565,237.4736787156718 282.88418604779565,238.52631024178405 282.88418604779565,240.1052575309524 282.88418604779565,240.63157329400852 282.88418604779565,241.15788905706464 282.88418604779565,241.68420482012075 282.88418604779565,242.21052058317687 282.88418604779565,242.736836346233 282.88418604779565,242.736836346233 282.88418604779565,243.2631521092891 282.88418604779565,243.78946787234523 282.88418604779565,244.31578363540135 282.88418604779565,244.31578363540135 282.88418604779565,244.8420993984574 282.88418604779565,244.8420993984574 282.88418604779565,245.36841516151352 282.88418604779565,245.89473092456964 282.88418604779565,245.89473092456964 282.88418604779565,246.42104668762576 282.88418604779565,246.42104668762576 282.88418604779565,246.94736245068188 282.88418604779565,247.473678213738 283.41050181085177,247.473678213738 283.41050181085177,247.99999397679412 283.41050181085177,248.52630973985023 283.9368175739079,248.52630973985023 283.9368175739079,248.52630973985023 283.9368175739079,248.52630973985023 284.46313333696395,248.52630973985023 284.9894491000201,248.52630973985023 285.51576486307624,248.52630973985023 286.04208062613236,248.52630973985023 286.04208062613236,248.52630973985023 286.5683963891885,248.52630973985023 286.5683963891885,248.52630973985023 286.5683963891885,248.52630973985023 287.09471215224454,248.52630973985023 287.09471215224454,248.52630973985023 287.62102791530066,248.52630973985023 288.1473436783568,248.52630973985023 288.1473436783568,248.52630973985023 288.6736594414129,248.52630973985023 288.6736594414129,248.52630973985023 289.199975204469,248.52630973985023 289.7262909675252,248.52630973985023 289.7262909675252,248.52630973985023 289.7262909675252,248.52630973985023 290.25260673058125,248.52630973985023 290.25260673058125,248.52630973985023 290.25260673058125,248.52630973985023 290.25260673058125,248.52630973985023 290.77892249363737,248.52630973985023 291.3052382566935,248.52630973985023 291.8315540197496,248.52630973985023 291.8315540197496,248.52630973985023 292.3578697828058,248.52630973985023 292.88418554586184,248.52630973985023 293.41050130891796,248.52630973985023 293.9368170719741,248.52630973985023 293.9368170719741,248.52630973985023 293.9368170719741,248.52630973985023 294.4631328350302,248.52630973985023 294.4631328350302,248.52630973985023 294.4631328350302,248.52630973985023 294.98944859808637,248.52630973985023 294.98944859808637,248.52630973985023 295.51576436114243,247.99999397679412 295.51576436114243,247.99999397679412 296.0420801241985,247.473678213738 296.0420801241985,246.94736245068188 296.5683958872546,246.42104668762576 296.5683958872546,246.42104668762576 297.0947116503107,245.89473092456964 297.0947116503107,245.36841516151352 297.0947116503107,245.36841516151352 297.62102741336685,244.31578363540135 298.6736589394791,243.2631521092891 298.6736589394791,243.2631521092891 299.1999747025352,242.21052058317687 299.7262904655913,241.68420482012075 299.7262904655913,241.15788905706464 300.25260622864744,240.1052575309524 300.77892199170356,239.57894176789628 300.77892199170356,239.57894176789628 300.77892199170356,239.05262600484016 301.3052377547597,237.99999447872793 301.8315535178158,237.4736787156718 301.8315535178158,237.4736787156718 301.8315535178158,236.9473629526157 301.8315535178158,236.9473629526157 301.8315535178158,236.42104718955963 301.8315535178158,235.3684156634474 301.8315535178158,235.3684156634474 301.8315535178158,234.84209990039125 301.8315535178158,234.31578413733516 301.8315535178158,234.31578413733516 301.8315535178158,234.31578413733516 301.8315535178158,234.31578413733516 301.8315535178158,233.78946837427904 301.8315535178158,233.78946837427904 302.3578692808719,233.26315261122292 302.3578692808719,232.7368368481668 302.3578692808719,232.7368368481668 302.3578692808719,232.21052108511066 302.3578692808719,232.21052108511066 302.3578692808719,232.21052108511066 302.3578692808719,231.68420532205457 302.884185043928,231.15788955899845 302.884185043928,230.63157379594233 302.884185043928,230.63157379594233 302.884185043928,230.1052580328862 302.884185043928,229.57894226983007 302.884185043928,229.57894226983007 302.884185043928,227.9999949806618 303.41050080698415,227.47367921760568 303.9368165700402,226.94736345454953 303.9368165700402,226.4210476914934 304.4631323330963,225.3684161653812 304.4631323330963,224.8421004023251 304.4631323330963,224.31578463926897 304.98944809615244,223.78946887621285 304.98944809615244,223.26315311315673 304.98944809615244,223.26315311315673 304.98944809615244,223.26315311315673 305.51576385920856,222.73683735010061 305.51576385920856,222.21052158704452 306.0420796222647,221.6842058239884 306.0420796222647,221.1578900609323 306.0420796222647,220.63157429787617 306.0420796222647,220.63157429787617 306.0420796222647,220.63157429787617 306.0420796222647,220.10525853482005 306.5683953853208,220.10525853482005 306.5683953853208,220.10525853482005 306.5683953853208,220.10525853482005 307.0947111483769,219.05262700870782 307.0947111483769,219.05262700870782 307.62102691143303,218.5263112456517 308.14734267448915,217.9999954825956 308.14734267448915,217.9999954825956 308.67365843754527,217.9999954825956 308.67365843754527,217.9999954825956 309.1999742006014,217.9999954825956 309.7262899636575,217.9999954825956 309.7262899636575,217.9999954825956 310.2526057267136,217.4736797195395 310.77892148976974,217.4736797195395 311.30523725282586,217.4736797195395 311.831553015882,217.4736797195395 312.35786877893804,216.94736395648337 312.88418454199416,216.94736395648337 313.4105003050503,216.94736395648337 313.4105003050503,216.94736395648337 313.9368160681064,216.94736395648337 314.4631318311625,216.94736395648337 314.4631318311625,216.94736395648337 314.4631318311625,216.94736395648337 314.98944759421863,216.94736395648337 314.98944759421863,216.94736395648337 314.98944759421863,216.94736395648337 314.98944759421863,216.94736395648337 315.51576335727475,216.94736395648337 315.51576335727475,216.94736395648337 315.51576335727475,216.94736395648337 315.51576335727475,216.94736395648337 316.04207912033087,216.94736395648337 316.04207912033087,216.94736395648337 316.04207912033087,216.94736395648337 316.568394883387,216.94736395648337 317.0947106464431,216.94736395648337 317.6210264094992,216.94736395648337 318.14734217255534,217.4736797195395 318.67365793561146,217.4736797195395 319.1999736986676,217.4736797195395 319.7262894617237,218.5263112456517 320.25260522477976,218.5263112456517 320.7789209878359,219.05262700870782 321.305236750892,220.10525853482005 321.8315525139481,220.10525853482005 322.3578682770042,221.1578900609323 322.88418404006035,221.6842058239884 323.41049980311647,222.21052158704452 323.9368155661726,222.21052158704452 324.4631313292287,223.26315311315673 324.98944709228476,223.78946887621285 325.51576285534094,224.31578463926897 326.04207861839706,224.31578463926897 326.04207861839706,224.31578463926897 326.04207861839706,224.8421004023251 326.04207861839706,224.8421004023251 326.04207861839706,225.3684161653812 326.04207861839706,225.3684161653812 326.04207861839706,226.4210476914934 326.04207861839706,226.4210476914934 326.04207861839706,226.94736345454953 326.04207861839706,227.47367921760568 326.04207861839706,227.9999949806618 326.04207861839706,228.52631074371786 326.04207861839706,229.05262650677398 326.04207861839706,230.1052580328862 326.04207861839706,231.15788955899845 326.04207861839706,232.21052108511066 326.04207861839706,232.7368368481668 326.04207861839706,233.78946837427904 326.04207861839706,234.31578413733516 326.04207861839706,235.3684156634474 326.04207861839706,235.8947314265035 326.04207861839706,235.8947314265035 326.04207861839706,236.42104718955963 326.04207861839706,236.9473629526157 326.04207861839706,237.4736787156718 326.04207861839706,237.99999447872793 326.04207861839706,238.52631024178405 326.04207861839706,238.52631024178405 326.04207861839706,239.05262600484016 326.04207861839706,239.57894176789628 326.04207861839706,240.1052575309524 326.04207861839706,240.1052575309524 326.04207861839706,240.63157329400852 326.04207861839706,241.15788905706464 326.04207861839706,241.15788905706464 326.04207861839706,241.15788905706464 326.04207861839706,241.15788905706464 326.04207861839706,241.68420482012075 326.04207861839706,241.68420482012075 326.04207861839706,241.68420482012075 326.04207861839706,241.68420482012075 326.04207861839706,242.21052058317687 326.04207861839706,242.21052058317687 326.04207861839706,242.736836346233 326.04207861839706,242.736836346233 326.04207861839706,243.2631521092891 326.04207861839706,243.2631521092891 326.04207861839706,243.2631521092891 326.04207861839706,243.78946787234523 326.04207861839706,244.31578363540135 326.04207861839706,244.31578363540135 326.04207861839706,244.8420993984574 326.04207861839706,245.36841516151352 326.04207861839706,245.36841516151352 326.04207861839706,246.42104668762576 326.04207861839706,246.42104668762576 326.04207861839706,246.94736245068188 326.04207861839706,247.473678213738 326.04207861839706,247.99999397679412 326.04207861839706,248.52630973985023 326.04207861839706,248.52630973985023 326.04207861839706,249.05262550290635 326.5683943814532,250.1052570290186 326.5683943814532,250.1052570290186 326.5683943814532,250.6315727920747 326.5683943814532,251.15788855513082 326.5683943814532,251.68420431818694 327.0947101445093,252.21052008124306 327.0947101445093,252.21052008124306 327.62102590756535,252.21052008124306 327.62102590756535,252.21052008124306 328.14734167062153,252.21052008124306 328.14734167062153,252.21052008124306 328.6736574336776,252.21052008124306 329.1999731967337,252.21052008124306 329.1999731967337,252.21052008124306 329.7262889597898,252.21052008124306 330.77892048590206,253.26315160735524 331.3052362489582,253.78946737041136 331.3052362489582,254.31578313346748 332.3578677750704,254.8420988965236 332.3578677750704,254.8420988965236 332.88418353812654,254.8420988965236 333.41049930118265,254.8420988965236 333.9368150642388,254.8420988965236 333.9368150642388,254.8420988965236 334.4631308272949,254.8420988965236 334.989446590351,254.8420988965236 335.5157623534071,255.3684146595797 336.04207811646324,255.3684146595797 336.04207811646324,255.3684146595797 336.5683938795193,255.3684146595797 337.0947096425754,255.3684146595797 337.62102540563154,255.3684146595797 337.62102540563154,255.3684146595797 338.14734116868766,255.3684146595797 338.14734116868766,255.3684146595797 338.14734116868766,255.3684146595797 338.6736569317438,254.8420988965236 338.6736569317438,254.8420988965236 339.1999726947999,254.31578313346748 339.726288457856,253.78946737041136 340.25260422091213,253.78946737041136 340.25260422091213,253.26315160735524 340.77891998396825,252.73683584429918 341.30523574702437,252.21052008124306 341.8315515100805,251.68420431818694 342.3578672731366,251.15788855513082 343.41049879924884,250.6315727920747 343.93681456230496,250.1052570290186 344.4631303253611,249.05262550290635 344.98944608841714,248.52630973985023 345.51576185147326,247.99999397679412 346.0420776145294,247.473678213738 346.5683933775855,246.94736245068188 347.0947091406416,245.89473092456964 347.0947091406416,245.89473092456964 347.0947091406416,245.89473092456964 347.0947091406416,245.36841516151352 347.0947091406416,245.36841516151352 347.62102490369773,244.31578363540135 347.62102490369773,243.78946787234523 347.62102490369773,243.2631521092891 347.62102490369773,243.2631521092891 348.67365642980997,242.21052058317687 349.1999721928661,241.68420482012075 349.1999721928661,241.15788905706464 349.1999721928661,240.63157329400852 349.1999721928661,240.63157329400852 349.7262879559222,239.57894176789628 350.2526037189783,239.05262600484016 350.2526037189783,238.52631024178405 350.2526037189783,238.52631024178405 350.2526037189783,237.99999447872793 350.2526037189783,237.99999447872793 350.77891948203444,237.4736787156718 350.77891948203444,237.4736787156718 350.77891948203444,237.4736787156718 350.77891948203444,236.9473629526157 350.77891948203444,236.42104718955963 351.30523524509056,235.8947314265035 351.30523524509056,235.3684156634474 351.30523524509056,235.3684156634474 351.30523524509056,235.3684156634474 351.30523524509056,234.84209990039125 352.3578667712028,233.26315261122292 352.3578667712028,232.7368368481668 352.3578667712028,232.7368368481668 352.3578667712028,232.21052108511066 352.88418253425885,230.63157379594233 352.88418253425885,229.57894226983007 353.410498297315,229.05262650677398 353.410498297315,229.05262650677398 353.410498297315,228.52631074371786 353.410498297315,227.9999949806618 353.410498297315,226.94736345454953 353.9368140603711,226.4210476914934 353.9368140603711,226.4210476914934 353.9368140603711,225.3684161653812 353.9368140603711,224.8421004023251 353.9368140603711,224.8421004023251 353.9368140603711,224.31578463926897 353.9368140603711,223.78946887621285 353.9368140603711,223.26315311315673 354.4631298234272,222.21052158704452 354.4631298234272,222.21052158704452 354.4631298234272,221.6842058239884 354.4631298234272,221.1578900609323 354.9894455864833,220.63157429787617 354.9894455864833,220.10525853482005 354.9894455864833,220.10525853482005 354.9894455864833,220.10525853482005 354.9894455864833,219.57894277176393 354.9894455864833,219.05262700870782 355.51576134953945,218.5263112456517 355.51576134953945,217.9999954825956 355.51576134953945,217.9999954825956 355.51576134953945,217.9999954825956 356.04207711259556,216.94736395648337 356.04207711259556,215.89473243037116 356.5683928756517,215.36841666731502 357.0947086387078,214.31578514120278 357.6210244017639,213.7894693781467 358.14734016482004,213.26315361509057 358.14734016482004,213.26315361509057 358.67365592787615,213.26315361509057 359.1999716909323,212.73683785203445 359.1999716909323,211.68420632592222 359.7262874539884,211.1578905628661 359.7262874539884,211.1578905628661 360.2526032170445,211.1578905628661 360.2526032170445,211.1578905628661 360.2526032170445,211.1578905628661 360.2526032170445,211.1578905628661 360.7789189801006,211.1578905628661 360.7789189801006,211.1578905628661 360.7789189801006,211.1578905628661 361.3052347431567,211.1578905628661 361.8315505062128,211.1578905628661 361.8315505062128,210.63157479980998 362.3578662692689,210.63157479980998 362.3578662692689,210.63157479980998 363.41049779538116,210.63157479980998 363.9368135584373,210.63157479980998 364.4631293214934,211.1578905628661 364.9894450845495,211.68420632592222 365.5157608476057,212.21052208897834 366.04207661066175,212.73683785203445 366.04207661066175,212.73683785203445 366.56839237371787,213.26315361509057 366.56839237371787,213.7894693781467 366.56839237371787,213.7894693781467 366.56839237371787,214.31578514120278 366.56839237371787,214.31578514120278 366.56839237371787,214.8421009042589 366.56839237371787,215.36841666731502 366.56839237371787,215.36841666731502 366.56839237371787,216.42104819342725 366.56839237371787,216.42104819342725 366.56839237371787,217.4736797195395 366.56839237371787,218.5263112456517 366.56839237371787,220.10525853482005 366.56839237371787,220.63157429787617 366.56839237371787,221.6842058239884 366.56839237371787,223.26315311315673 366.56839237371787,223.78946887621285 366.56839237371787,224.8421004023251 366.56839237371787,226.4210476914934 366.56839237371787,226.94736345454953 366.56839237371787,228.52631074371786 366.56839237371787,229.05262650677398 366.56839237371787,230.1052580328862 366.56839237371787,231.15788955899845 366.56839237371787,231.15788955899845 366.56839237371787,231.68420532205457 366.56839237371787,233.26315261122292 366.56839237371787,233.78946837427904 366.56839237371787,234.84209990039125 366.56839237371787,234.84209990039125 366.56839237371787,235.3684156634474 366.56839237371787,236.42104718955963 366.56839237371787,236.9473629526157 366.56839237371787,237.99999447872793 366.56839237371787,237.99999447872793 367.094708136774,239.05262600484016 367.6210238998301,240.1052575309524 367.6210238998301,240.63157329400852 368.1473396628863,240.63157329400852 368.67365542594234,241.68420482012075 369.19997118899846,242.21052058317687 369.7262869520545,243.2631521092891 369.7262869520545,243.78946787234523 370.25260271511064,244.31578363540135 370.77891847816676,244.8420993984574 370.77891847816676,245.36841516151352 370.77891847816676,245.89473092456964 371.3052342412229,246.42104668762576 371.3052342412229,246.42104668762576 371.3052342412229,246.94736245068188 371.831550004279,247.473678213738 371.831550004279,247.99999397679412 371.831550004279,247.99999397679412 372.3578657673351,248.52630973985023 372.3578657673351,248.52630973985023 372.88418153039123,249.57894126596247 373.41049729344735,250.1052570290186 373.41049729344735,250.1052570290186 373.93681305650347,251.15788855513082 374.4631288195596,251.15788855513082 374.4631288195596,251.15788855513082 374.9894445826157,251.68420431818694 374.9894445826157,252.21052008124306 374.9894445826157,252.21052008124306 375.5157603456718,252.21052008124306 375.5157603456718,252.21052008124306 375.5157603456718,252.73683584429918 376.56839187178406,253.26315160735524 377.0947076348402,253.26315160735524 377.0947076348402,253.26315160735524 377.62102339789624,253.26315160735524 377.62102339789624,253.26315160735524 377.62102339789624,253.26315160735524 378.14733916095236,253.26315160735524 378.14733916095236,253.78946737041136 378.14733916095236,253.78946737041136 378.6736549240085,253.78946737041136 378.6736549240085,253.78946737041136 378.6736549240085,254.31578313346748 378.6736549240085,254.31578313346748 379.1999706870646,254.31578313346748 379.7262864501207,254.8420988965236 379.7262864501207,254.8420988965236 379.7262864501207,254.8420988965236 380.25260221317683,254.8420988965236 380.25260221317683,254.8420988965236 380.25260221317683,254.8420988965236 380.77891797623295,254.8420988965236 380.77891797623295,254.8420988965236 380.77891797623295,254.8420988965236 381.30523373928906,254.8420988965236 381.30523373928906,254.8420988965236 381.30523373928906,254.8420988965236 381.30523373928906,254.8420988965236 381.8315495023452,254.8420988965236 381.8315495023452,254.8420988965236 382.8841810284574,254.8420988965236 383.41049679151354,254.8420988965236 383.41049679151354,254.8420988965236 383.93681255456966,254.8420988965236 384.4631283176258,254.8420988965236 384.9894440806819,254.31578313346748 385.515759843738,253.78946737041136 386.04207560679407,253.26315160735524 386.5683913698502,252.73683584429918 387.0947071329063,252.21052008124306 387.6210228959624,251.68420431818694 388.14733865901854,250.6315727920747 388.67365442207466,250.6315727920747 389.1999701851308,250.1052570290186 389.7262859481869,249.57894126596247 390.252601711243,249.05262550290635 390.77891747429913,248.52630973985023 391.30523323735525,247.99999397679412 391.83154900041137,247.473678213738 392.3578647634675,246.94736245068188 392.3578647634675,246.42104668762576 392.8841805265236,245.89473092456964 393.4104962895797,245.89473092456964 393.9368120526358,245.36841516151352 393.9368120526358,244.8420993984574 394.4631278156919,244.31578363540135 394.4631278156919,243.78946787234523 394.989443578748,243.2631521092891 395.5157593418041,242.736836346233 395.5157593418041,242.21052058317687 396.04207510486026,241.68420482012075 396.04207510486026,241.15788905706464 396.5683908679164,240.63157329400852 396.5683908679164,240.1052575309524 397.0947066309725,239.57894176789628 397.0947066309725,239.57894176789628 397.0947066309725,239.05262600484016 397.6210223940286,238.52631024178405 397.6210223940286,237.4736787156718 397.6210223940286,237.4736787156718 398.1473381570847,236.42104718955963 399.19996968319697,235.3684156634474 399.19996968319697,234.84209990039125 400.2526012093092,233.26315261122292 401.30523273542144,231.15788955899845 402.3578642615336,229.57894226983007 403.936811550702,226.94736345454953 404.9894430768142,224.8421004023251 405.51575883987033,223.26315311315673 407.0947061290387,221.1578900609323 408.1473376551509,219.05262700870782 408.67365341820704,217.9999954825956 409.19996918126316,216.42104819342725 409.7262849443193,215.36841666731502 410.25260070737534,214.31578514120278 410.77891647043145,213.26315361509057 410.77891647043145,213.26315361509057 410.77891647043145,212.73683785203445 410.77891647043145,212.73683785203445 411.3052322334876,212.21052208897834 411.8315479965437,211.1578905628661 412.3578637595998,210.63157479980998 412.3578637595998,210.63157479980998 413.41049528571205,208.52631174758554 413.93681104876816,207.4736802214733 414.9894425748804,205.89473293230498 414.9894425748804,205.36841716924886 416.04207410099264,203.7894698800805 416.04207410099264,203.7894698800805 416.56838986404875,203.26315411702438 417.621021390161,202.21052259091215 "
        />
        <polyline fill="#ffffff" stroke="#ffffff" stroke-width="30" stroke-linejoin="round" stroke-dashoffset=""
                  fill-rule="nonzero" marker-start="" marker-mid="" marker-end="" id="svg_2"
                  points="262.88418705166333,232.7368368481668 262.3578712886072,234.31578413733516 261.8315555255511,236.42104718955963 261.8315555255511,236.9473629526157 261.305239762495,239.05262600484016 260.77892399943886,241.15788905706464 259.7262924733266,243.2631521092891 259.7262924733266,243.78946787234523 258.6736609472144,245.36841516151352 258.6736609472144,245.89473092456964 258.14734518415827,246.94736245068188 258.14734518415827,247.473678213738 258.14734518415827,247.99999397679412 258.14734518415827,248.52630973985023 258.14734518415827,249.05262550290635 258.14734518415827,249.05262550290635 257.62102942110215,249.57894126596247 257.62102942110215,250.1052570290186 257.62102942110215,250.6315727920747 257.62102942110215,251.15788855513082 257.09471365804603,251.68420431818694 257.09471365804603,252.21052008124306 256.5683978949899,252.21052008124306 256.5683978949899,252.73683584429918 256.5683978949899,252.73683584429918 256.5683978949899,253.26315160735524 256.0420821319338,253.78946737041136 255.5157663688777,253.78946737041136 255.5157663688777,254.31578313346748 255.5157663688777,254.8420988965236 254.9894506058216,254.8420988965236 254.9894506058216,255.3684146595797 253.9368190797094,255.89473042263583 253.9368190797094,256.4210461856919 253.4105033166533,256.94736194874804 253.4105033166533,256.94736194874804 252.88418755359717,256.94736194874804 252.88418755359717,256.94736194874804 252.35787179054105,256.94736194874804 251.83155602748494,256.94736194874804 251.30524026442882,256.94736194874804 250.7789245013727,256.94736194874804 250.7789245013727,256.94736194874804 250.25260873831658,256.94736194874804 248.1473456860921,256.94736194874804 247.621029923036,256.94736194874804 246.5683983969238,256.94736194874804 245.51576687081158,256.94736194874804 244.46313534469934,256.94736194874804 243.4105038185871,256.94736194874804 242.88418805553098,256.94736194874804 241.83155652941875,257.47367771180416 241.30524076636263,257.47367771180416 241.30524076636263,257.47367771180416 240.7789250033065,256.94736194874804 240.2526092402504,256.4210461856919 239.19997771413816,255.89473042263583 238.67366195108204,255.3684146595797 238.67366195108204,254.8420988965236 238.67366195108204,254.31578313346748 238.67366195108204,253.26315160735524 238.67366195108204,251.68420431818694 238.67366195108204,251.15788855513082 238.67366195108204,250.1052570290186 238.67366195108204,249.05262550290635 238.67366195108204,247.99999397679412 238.67366195108204,247.99999397679412 238.67366195108204,247.473678213738 238.14734618802598,246.42104668762576 237.62103042496986,246.42104668762576 237.62103042496986,245.36841516151352 237.62103042496986,244.8420993984574 237.62103042496986,243.78946787234523 237.62103042496986,243.2631521092891 238.14734618802598,242.21052058317687 238.14734618802598,241.68420482012075 238.14734618802598,240.63157329400852 238.14734618802598,239.57894176789628 238.14734618802598,238.52631024178405 238.14734618802598,237.4736787156718 238.14734618802598,236.42104718955963 238.14734618802598,235.3684156634474 238.67366195108204,234.31578413733516 238.67366195108204,232.7368368481668 238.67366195108204,232.21052108511066 238.67366195108204,231.15788955899845 239.19997771413816,230.1052580328862 239.19997771413816,229.05262650677398 239.19997771413816,229.05262650677398 239.72629347719425,227.47367921760568 239.72629347719425,226.4210476914934 240.2526092402504,224.8421004023251 240.2526092402504,224.8421004023251 240.7789250033065,223.26315311315673 241.30524076636263,222.21052158704452 241.83155652941875,221.1578900609323 241.83155652941875,220.63157429787617 242.35787229247487,220.10525853482005 242.35787229247487,219.57894277176393 242.88418805553098,219.05262700870782 242.88418805553098,219.05262700870782 242.88418805553098,218.5263112456517 242.88418805553098,218.5263112456517 242.88418805553098,217.9999954825956 242.88418805553098,217.4736797195395 242.88418805553098,217.4736797195395 242.88418805553098,217.4736797195395 242.88418805553098,217.4736797195395 242.35787229247487,217.4736797195395 242.35787229247487,217.4736797195395 242.35787229247487,217.4736797195395 242.35787229247487,217.4736797195395 241.83155652941875,217.4736797195395 241.30524076636263,217.4736797195395 241.30524076636263,217.4736797195395 240.7789250033065,217.4736797195395 240.2526092402504,217.4736797195395 239.72629347719425,217.4736797195395 239.19997771413816,217.4736797195395 238.67366195108204,217.4736797195395 237.62103042496986,216.42104819342725 237.09471466191374,215.89473243037116 236.56839889885762,215.89473243037116 236.56839889885762,215.89473243037116 236.56839889885762,215.89473243037116 236.56839889885762,215.89473243037116 236.0420831358015,215.89473243037116 235.5157673727454,215.89473243037116 235.5157673727454,215.89473243037116 234.98945160968927,216.42104819342725 234.98945160968927,216.42104819342725 233.93682008357703,216.94736395648337 233.93682008357703,217.4736797195395 233.41050432052091,217.4736797195395 232.8841885574648,218.5263112456517 232.35787279440868,218.5263112456517 231.83155703135256,219.57894277176393 230.77892550524032,220.10525853482005 230.77892550524032,220.63157429787617 230.25260974218426,221.1578900609323 229.19997821607203,221.6842058239884 229.19997821607203,221.6842058239884 229.19997821607203,222.21052158704452 228.67366245301588,222.73683735010061 228.67366245301588,223.26315311315673 228.67366245301588,223.26315311315673 228.1473466899598,223.78946887621285 228.1473466899598,224.31578463926897 227.62103092690367,224.31578463926897 227.62103092690367,225.3684161653812 227.09471516384755,225.3684161653812 226.56839940079144,226.4210476914934 226.56839940079144,226.94736345454953 226.56839940079144,227.47367921760568 226.0420836377353,228.52631074371786 225.5157678746792,229.05262650677398 225.5157678746792,230.63157379594233 225.5157678746792,231.68420532205457 225.5157678746792,232.21052108511066 224.98945211162308,233.78946837427904 224.46313634856696,234.84209990039125 224.46313634856696,235.8947314265035 223.93682058551084,236.9473629526157 223.93682058551084,237.99999447872793 223.41050482245475,239.05262600484016 222.8841890593986,240.1052575309524 222.8841890593986,241.15788905706464 222.8841890593986,242.736836346233 222.8841890593986,243.2631521092891 222.8841890593986,243.78946787234523 222.3578732963425,244.8420993984574 222.3578732963425,245.36841516151352 222.3578732963425,246.42104668762576 222.3578732963425,246.94736245068188 222.3578732963425,247.473678213738 221.83155753328643,247.99999397679412 221.83155753328643,248.52630973985023 221.83155753328643,248.52630973985023 221.3052417702303,249.05262550290635 221.3052417702303,249.57894126596247 221.3052417702303,250.1052570290186 221.3052417702303,250.6315727920747 221.3052417702303,251.15788855513082 221.3052417702303,251.15788855513082 221.3052417702303,251.68420431818694 220.7789260071742,252.21052008124306 220.7789260071742,252.73683584429918 220.7789260071742,253.26315160735524 220.7789260071742,253.78946737041136 220.7789260071742,254.31578313346748 220.25261024411807,254.31578313346748 220.25261024411807,255.3684146595797 220.25261024411807,255.89473042263583 220.25261024411807,256.4210461856919 219.72629448106196,256.94736194874804 219.72629448106196,257.47367771180416 219.72629448106196,257.9999934748603 219.72629448106196,258.5263092379164 219.19997871800584,258.5263092379164 219.19997871800584,259.0526250009725 219.19997871800584,259.57894076402863 219.19997871800584,259.57894076402863 219.19997871800584,260.10525652708475 219.19997871800584,260.10525652708475 219.19997871800584,260.10525652708475 219.19997871800584,260.10525652708475 219.19997871800584,260.63157229014087 219.19997871800584,260.63157229014087 219.19997871800584,260.63157229014087 219.19997871800584,261.1578880531969 219.19997871800584,261.1578880531969 219.19997871800584,261.1578880531969 219.19997871800584,261.1578880531969 218.1473471918936,262.21051957930916 217.62103142883748,262.7368353423653 217.09471566578137,262.7368353423653 217.09471566578137,262.7368353423653 216.04208413966913,263.2631511054214 215.515768376613,263.7894668684775 215.515768376613,263.7894668684775 214.9894526135569,264.31578263153364 214.9894526135569,264.31578263153364 214.9894526135569,264.31578263153364 214.9894526135569,264.84209839458975 213.9368210874447,265.3684141576459 213.9368210874447,265.3684141576459 213.9368210874447,265.3684141576459 213.4105053243886,265.3684141576459 213.4105053243886,265.3684141576459 213.4105053243886,265.3684141576459 212.88418956133248,265.3684141576459 212.88418956133248,265.3684141576459 212.88418956133248,265.3684141576459 212.88418956133248,265.3684141576459 211.83155803522024,266.4210456837581 211.30524227216412,266.4210456837581 211.30524227216412,266.4210456837581 210.778926509108,266.4210456837581 210.778926509108,266.4210456837581 210.2526107460519,266.4210456837581 210.2526107460519,266.4210456837581 210.2526107460519,266.4210456837581 209.7262949829958,266.4210456837581 209.7262949829958,266.4210456837581 209.7262949829958,266.4210456837581 209.19997921993965,266.4210456837581 209.19997921993965,266.4210456837581 209.19997921993965,266.4210456837581 208.67366345688353,266.4210456837581 208.67366345688353,265.894729920702 208.1473476938274,265.894729920702 208.1473476938274,265.3684141576459 207.6210319307713,265.3684141576459 207.09471616771518,264.84209839458975 206.56840040465906,264.31578263153364 206.04208464160294,264.31578263153364 206.04208464160294,264.31578263153364 206.04208464160294,264.31578263153364 204.98945311549076,263.7894668684775 204.4631373524346,262.7368353423653 204.4631373524346,261.68420381625305 204.4631373524346,261.1578880531969 204.4631373524346,259.57894076402863 204.4631373524346,258.5263092379164 204.4631373524346,257.47367771180416 204.4631373524346,256.4210461856919 204.4631373524346,255.89473042263583 204.4631373524346,255.3684146595797 204.4631373524346,255.3684146595797 204.4631373524346,254.8420988965236 204.4631373524346,254.8420988965236 204.4631373524346,254.8420988965236 204.4631373524346,254.31578313346748 204.4631373524346,254.31578313346748 204.4631373524346,254.31578313346748 204.4631373524346,253.78946737041136 204.4631373524346,253.26315160735524 204.4631373524346,252.73683584429918 204.4631373524346,252.21052008124306 204.4631373524346,251.68420431818694 204.4631373524346,251.15788855513082 204.4631373524346,250.6315727920747 "
        />
    </g>
</svg>